<?xml version="1.0" encoding="utf-8"?>
<!-- Generator: Adobe Illustrator 15.0.0, SVG Export Plug-In . SVG Version: 6.00 Build 0)  -->
<!DOCTYPE svg PUBLIC "-//W3C//DTD SVG 1.1//EN" "http://www.w3.org/Graphics/SVG/1.1/DTD/svg11.dtd">
<svg version="1.1" id="Layer_1" xmlns="http://www.w3.org/2000/svg" xmlns:xlink="http://www.w3.org/1999/xlink" x="0px" y="0px"
	 width="502.875px" height="508.127px" viewBox="0 0 502.875 508.127" enable-background="new 0 0 502.875 508.127"
	 xml:space="preserve">
<g>
	<path d="M480.881,150.73c-10.01-20.304-22.664-39.459-37.5-56.797c-14.822-17.345-31.928-32.992-50.834-46.229
		c-18.898-13.245-39.586-24.072-61.344-32.005c-21.754-7.938-44.578-12.981-67.631-14.86c-23.052-1.888-46.337-0.596-68.896,3.916
		c-22.557,4.496-44.373,12.236-64.422,22.846c-20.066,10.594-38.322,24.04-54.088,39.471c-13.199,12.822-25.354,27.408-35.8,43.499
		c-10.456,16.079-19.19,33.655-25.776,52.197C7.997,181.307,3.553,200.804,1.442,220.63c-2.116,19.826-1.902,39.979,0.63,59.816
		c2.523,19.837,7.369,39.353,14.318,57.933c6.944,18.582,15.993,36.219,26.724,52.387c10.732,16.182,23.09,30.867,36.611,43.834
		c13.527,12.965,28.229,24.16,43.514,33.35c9.248,5.578,20.166,11.865,32.152,17.604c11.973,5.756,25.014,10.938,38.033,14.756
		c13.006,3.842,25.967,6.318,37.469,7.295c11.502,0.996,21.52,0.527,28.693-1.033c-14.316-0.148-28.615-1.553-42.662-4.146
		c21.404,1.955,42.662,3.123,64.031,1.799c10.666-0.662,21.33-1.957,31.852-4.096c10.518-2.135,20.895-5.119,30.877-9.104
		c-0.451-1.23-0.775-2.146,0.598-3.529c1.363-1.395,4.455-3.201,10.633-6.586c-6.42,2.801-13.75,5.717-21.645,8.344
		c-7.891,2.627-16.348,4.963-24.922,6.752c-8.572,1.797-17.258,3.049-25.545,3.703c-8.287,0.662-16.172,0.732-23.148,0.328
		l0.041-3.916c6.869-0.252,14.572-0.562,22.689-1.23c8.115-0.662,16.643-1.686,25.102-3.207c8.457-1.518,16.842-3.537,24.648-5.988
		c7.809-2.447,15.033-5.322,21.213-8.375l-2.09-4.795c-0.262-0.605,6.279-4.141-0.529-1.193c-9.18,4.031-18.682,7.268-25.082,9.139
		l-1.371-4.623c27.803-8.234,54.188-22.203,77.418-42.092c52.271-44.75,77.4-109.869,74.367-175.588
		c0.586-3.404,0.736-8.487,0.387-14.459c-0.398-6.979-1.516-15.15-3.139-23.222c-1.611-8.077-3.725-16.045-5.672-22.778
		c-1.936-6.736-3.672-12.254-4.273-15.578c-1.518-4.748-2.572-7.918-3.086-9.795c-0.516-1.875-0.5-2.459-0.018-1.991
		c0.951,0.94,3.773,6.098,7.037,13.835c3.271,7.727,6.891,18.067,9.662,29.088c2.811,11.011,4.746,22.676,5.693,32.738
		c0.316-3.414,0.629-3.457,0.992-1.576c0.357,1.878,0.717,5.676,0.969,9.905c0.262,4.227,0.406,8.883,0.594,12.484
		c0.191,3.6,0.459,6.154,1.115,6.165c1.307,0.021,2.615,0.051,3.912-0.796c1.295-0.848,2.596-2.572,3.787-6.102
		c1.176-3.529,2.271-8.871,2.777-16.955c0.475-8.075,0.396-18.925-1.594-33.246c-0.889-7.181,0.303-7.499,2.172-6.057
		c1.852,1.437,4.223,4.702,5.498,4.44C498.288,192.462,490.905,171.029,480.881,150.73z"/>
	<g>
		<path fill="none" d="M218.667,291.719c0.025,0.012-0.025-0.072-0.137-0.189C218.597,291.643,218.651,291.715,218.667,291.719z"/>
		<path fill="#FFFFFF" d="M118.462,268.906c-1.191-1.348-2.561-2.549-4.018-3.537c-1.465-0.986-3.004-1.754-4.531-2.348
			c-1.533-0.591-3.047-1.014-4.537-1.301c-0.494-0.1-0.891-0.158-1.295-0.218c-0.41-0.052-0.82-0.105-1.232-0.138
			c-0.824-0.072-1.652-0.103-2.477-0.086c-3.307,0.084-6.482,0.875-9.26,2.055c-2.795,1.169-5.217,2.732-7.338,4.447
			c-2.125,1.719-3.998,3.561-5.652,5.507c-3.299,3.904-5.881,8.074-7.982,12.392c-2.098,4.314-3.73,8.771-4.908,13.326
			c-3.087,11.82-2.435,30.068-0.035,38.832c0.688,2.418,1.77,5.047,4.121,7.266c1.162,1.092,2.66,1.99,4.26,2.5
			c1.598,0.516,3.244,0.674,4.76,0.584c3.049-0.188,5.639-1.1,8.002-2.139c2.363-1.055,4.488-2.336,6.504-3.701
			c4.025-2.736,7.609-5.814,10.963-9.188c1.686-1.705,3.293-3.414,4.955-5.557c1.615-2.064,2.941-4.033,4.234-6.078
			c1.275-2.035,2.41-4.127,3.504-6.246c1.102-2.117,2.09-4.291,2.99-6.521c1.836-4.451,3.303-9.123,4.209-14.172
			c0.469-2.523,0.713-5.16,0.719-7.934c-0.014-2.771-0.268-5.71-1.137-8.778C122.403,274.833,120.874,271.605,118.462,268.906z
			 M107.53,292.072c-1.014,7.408-3.59,15.469-6.811,22.936c-0.787,1.857-1.672,3.729-2.545,5.324
			c-0.844,1.504-2.105,3.176-3.357,4.777c-2.562,3.199-5.361,6.303-8.334,8.982c-1.49,1.33-3.035,2.551-4.582,3.568
			c-1.541,1.01-3.13,1.787-4.492,2.104c-1.382,0.301-2.34,0.285-3.42-0.334c-1.078-0.629-2.183-2.033-3.035-3.732
			c-4.187-8.494-1.418-26.154,2.558-33.471c2.036-3.688,4.277-7.219,6.724-10.496c1.213-1.643,2.51-3.199,3.824-4.68
			c1.311-1.486,2.682-2.873,4.1-4.106c1.41-1.242,2.838-2.369,4.289-3.26c1.449-0.889,2.887-1.568,4.221-1.996
			c1.344-0.42,2.572-0.557,3.693-0.463c0.281,0.012,0.559,0.039,0.834,0.084c0.139,0.018,0.275,0.049,0.414,0.074
			c0.141,0.031,0.289,0.062,0.336,0.08c0.674,0.164,1.283,0.395,1.801,0.635c1.043,0.504,1.686,1.045,2.213,1.67
			c0.506,0.641,0.969,1.48,1.303,2.688c0.348,1.188,0.568,2.688,0.598,4.335C107.897,288.443,107.739,290.227,107.53,292.072z"/>
		<path fill="#FFFFFF" d="M203.229,395.043c-2.48-3.365-4.557-7.012-6.328-10.807c-1.789-3.787-3.213-7.762-4.391-11.822
			c-1.193-4.057-2.1-8.223-2.773-12.443c-0.713-4.213-1.195-8.49-1.484-12.795c-1.207-17.23,0.223-34.834,2.99-52.16
			c0.74-4.324,1.492-8.65,2.412-12.927c0.896-4.275,1.969-8.523,3.094-12.606l0.975-3.371l0.902-3.295
			c0.586-2.13,1.176-4.179,1.82-6.127c0.641-1.939,1.342-3.793,2.084-5.328c0.369-0.761,0.752-1.438,1.074-1.913
			c0.307-0.474,0.607-0.714,0.389-0.55l-9.951-15.429c-8.23,4.604-36.928,30.689-42.953,38.188
			c-0.021,0.027-0.043,0.057-0.066,0.084c0.316-1.189,0.643-2.375,0.961-3.562c3.719-8.844,7.328-17.726,10.812-26.661
			c5.418-13.893,10.57-27.896,15.365-42.066c4.736-14.195,9.266-28.49,12.648-43.303c-8.332,12.707-15.361,25.998-21.982,39.471
			c-6.562,13.499-12.562,27.249-18.025,41.215c-5.463,13.965-10.371,28.158-14.621,42.573c-3.734,12.86-7.051,25.866-9.254,39.194
			c-0.096,0.352-0.193,0.697-0.283,1.059c-0.311,1.256-0.602,2.543-0.805,4.082l-0.035,0.26c-0.383,2.963,1.529,5.795,4.5,6.498
			c3.176,0.754,6.359-1.211,7.111-4.387c0.191-0.805,0.385-1.611,0.576-2.416c0.078-0.27,0.16-0.541,0.246-0.816
			c0.299-0.953,0.645-1.941,1.014-2.934c0.742-1.99,1.578-4.01,2.459-6.018c1.771-4.016,3.676-8.037,5.725-11.92
			c1.021-1.939,2.078-3.855,3.162-5.66c0.541-0.898,1.092-1.773,1.625-2.547l1.869-2.611c2.59-3.553,5.268-7.004,8.111-10.278
			c5.662-6.572,11.959-12.415,18.824-17.62c0.217-0.164,0.438-0.32,0.654-0.482l-0.096,0.317l-0.531,1.665
			c-1.459,4.613-2.553,9.183-3.592,13.771c-1.01,4.588-1.932,9.181-2.635,13.812c-1.451,9.252-2.424,18.588-2.707,27.996
			c-0.166,4.703-0.166,9.422,0.055,14.146c0.215,4.725,0.559,9.459,1.195,14.18c0.635,4.721,1.48,9.432,2.592,14.105
			c1.154,4.664,2.578,9.289,4.334,13.812c1.773,4.518,3.922,8.916,6.449,13.111c2.541,4.186,5.521,8.129,8.883,11.707
			c3.391,3.551,7.168,6.727,11.264,9.35c4.094,2.625,8.463,4.73,12.971,6.268c9.031,3.064,18.432,4.027,27.551,3.449
			c-8.963-1.771-17.617-4.475-25.217-8.748C214.589,407.525,208.11,401.838,203.229,395.043z"/>
		<path fill="#FFFFFF" d="M412.598,167.882c0,0-1.941,3.616-1.977,3.778c0.004-0.083-0.02-0.002-0.062,0.09l-0.195,0.456
			c-0.16,0.358-0.359,0.768-0.572,1.187c-0.43,0.841-0.92,1.726-1.428,2.609c-1.023,1.772-2.129,3.559-3.266,5.333
			c-2.289,3.546-4.656,7.087-7.121,10.561c-4.943,6.941-10.08,13.763-15.49,20.286c-5.414,6.505-11.016,12.844-17.01,18.399
			c-0.215,0.199-0.432,0.389-0.645,0.586c0.709-2.658,1.314-5.332,1.957-7.987c0.697-3.361,1.426-6.702,1.98-10.082
			c1.176-6.742,2.059-13.534,2.578-20.398c0.518-6.872,0.709-13.779,0.334-20.865c-1.988,2.979-3.629,6.086-5.199,9.185
			c-1.564,3.105-3,6.239-4.379,9.383c-2.748,6.289-5.178,12.64-7.43,19.012c-1.158,3.177-2.174,6.384-3.262,9.561
			c-0.982,3.205-2.076,6.368-3.014,9.549l-2.934,9.356l-1.482,4.344c-0.24,0.664-0.49,1.302-0.689,1.761
			c-0.096,0.223-0.186,0.406-0.184,0.431c0.012-0.006,8.156,15.466,8.156,15.466c3.457-0.461,21.467-15.229,24.715-18.506
			c6.438-6.591,12.1-13.536,17.385-20.711c3.695-5.042,3.453-4.451,6.811-9.686c-1.059,5.733-8.236,62.822-8.236,62.822
			c1.373-4.126,2.645-8.284,3.9-12.446c1.264-4.16,2.498-8.329,3.691-12.507c2.402-8.353,4.74-16.72,7.029-25.094l6.863-25.102
			c2.018-7.376,4.043-14.754,6.178-22.04c0.096-0.26,0.193-0.523,0.289-0.804C420.004,175.477,412.598,167.882,412.598,167.882z"/>
		<path fill="#FFFFFF" d="M264.766,251.275c0.42-2.407,0.703-4.798,0.877-7.19c0.334-4.783,0.176-9.575-0.508-14.382
			c-0.373-2.401-0.895-4.805-1.629-7.194c-0.729-2.39-1.697-4.768-3.035-7.045c-1.332-2.266-3.031-4.472-5.246-6.223
			c-2.199-1.756-4.888-2.979-7.576-3.451c-2.701-0.468-5.324-0.257-7.719,0.28c-2.404,0.553-4.609,1.442-6.68,2.474
			c-4.119,2.111-9.842,4.923-13.125,7.914c4.074-1.748,10.301-3.45,14.418-4.346c4.068-0.912,8.262-1.069,11.363,0.262
			c6.139,2.5,7.865,10.549,7.916,18.298c0.053,3.924-0.385,7.936-1.096,11.847c-0.355,1.956-0.8,3.89-1.337,5.757
			c-0.543,1.849-1.176,3.698-1.85,5.265c-0.676,1.521-1.629,3.168-2.676,4.855c-1.061,1.676-2.154,3.396-3.332,5.076
			c-1.172,1.687-2.396,3.355-3.658,4.996c-1.238,1.66-2.514,3.293-3.822,4.89c-2.627,3.184-5.352,6.271-8.156,9.102
			c-1.395,1.417-2.826,2.753-4.248,3.974c-1.41,1.225-2.846,2.322-4.154,3.127c-0.529,0.326-1.016,0.58-1.447,0.779
			c-0.037-0.123-0.076-0.246-0.111-0.381l-0.121-0.449c-0.033-0.09-0.131-0.604-0.148-0.631c-0.354-1.443-0.529-3.055-0.531-4.748
			c-0.059-3.401,0.549-7.108,1.559-10.788c1.033-3.681,2.484-7.366,4.34-10.856c0.938-1.735,1.941-3.456,3.102-5.052
			c1.129-1.631,2.408-3.133,3.807-4.517c1.418-1.355,2.973-2.57,4.771-3.433c1.791-0.853,3.857-1.339,6.141-1.132
			c-1.811-1.393-4.293-2.121-6.785-2.092c-2.504,0.004-5.002,0.636-7.291,1.598c-4.619,1.934-8.543,5.041-11.918,8.559
			c-3.357,3.552-6.189,7.594-8.406,12.047c-2.223,4.451-3.84,9.329-4.486,14.677c-0.283,2.675-0.316,5.47,0.049,8.351l0.15,0.984
			c0.068,0.402,0.148,0.805,0.229,1.156c0.158,0.729,0.354,1.48,0.6,2.262c0.49,1.549,1.178,3.248,2.381,5.045
			c1.184,1.773,3.088,3.725,5.625,4.922c1.246,0.598,2.582,0.99,3.855,1.186c1.273,0.193,2.475,0.205,3.57,0.115
			c2.195-0.191,3.959-0.756,5.504-1.361c1.543-0.617,2.873-1.318,4.1-2.047c4.836-2.93,8.383-6.24,11.744-9.668
			c3.32-3.436,6.293-7.021,9.064-10.733c0.086-0.115,0.166-0.23,0.252-0.346c0.027,2.284,0.035,4.569-0.021,6.851
			c-0.045,1.732-0.121,3.463-0.266,5.186c-0.17,1.719-0.316,3.447-0.916,5.092c1.135-1.363,1.9-3.021,2.658-4.627
			c0.742-1.623,1.416-3.273,2.062-4.934c1.283-3.322,2.451-6.682,3.566-10.056c1.115-3.375,2.176-6.77,3.189-10.187
			c0.506-1.711,3.205-10.592,3.58-11.714C263.801,256.079,264.346,253.699,264.766,251.275z M218.53,291.529
			c0.111,0.117,0.162,0.201,0.137,0.189C218.651,291.715,218.597,291.643,218.53,291.529z"/>
		<path fill="#FFFFFF" d="M333.674,258.566c-2.227-3.383-4.564-6.684-6.951-9.948c-2.389-3.264-4.828-6.486-7.322-9.686
			c-0.705-0.902-1.428-1.8-2.143-2.699c0.246-0.37,0.5-0.735,0.748-1.105c6.105-9.151,11.996-18.427,17.715-27.812
			c5.719-9.385,11.195-18.919,16.465-28.601c-7.516,8.075-14.715,16.375-21.854,24.694l-21.227,25.028l-10.566,12.469
			c-2.25,2.672-4.521,5.315-6.803,7.946c2.697-7.79,5.414-15.539,8.238-23.224c3.562-9.678,7.219-19.233,11.396-28.583
			c2.023-4.701,4.15-9.353,6.287-13.991c2.119-4.647,4.326-9.249,6.596-13.809c2.229-4.581,4.549-9.109,6.957-13.578
			c2.361-4.495,4.842-8.914,7.408-13.266c5.1-8.721,10.621-17.149,16.783-24.966c3.109-3.877,6.355-7.629,9.898-11.033
			c3.514-3.434,7.312-6.531,11.434-9.101c4.131-2.543,8.619-4.53,13.463-5.517c4.832-1.008,10.004-0.971,15.162,0.089
			c-4.596-2.549-9.953-4.079-15.494-4.218c-5.541-0.158-11.16,1-16.361,3.024c-5.229,2-10.07,4.829-14.572,8.01
			c-4.479,3.223-8.646,6.806-12.506,10.646c-7.764,7.653-14.42,16.183-20.494,24.997c-3.016,4.425-5.852,8.95-8.598,13.517
			c-2.697,4.594-5.268,9.248-7.752,13.939c-2.441,4.712-4.768,9.475-7.023,14.264c-2.238,4.797-4.328,9.655-6.381,14.524
			c-3.986,9.783-7.84,19.636-11.404,29.501c-3.582,9.867-6.971,19.767-10.322,29.617c-1.678,4.922-3.344,9.838-5.047,14.67
			c-0.852,2.41-1.715,4.811-2.6,7.1c-0.439,1.139-0.891,2.259-1.328,3.245c-0.217,0.488-0.436,0.949-0.6,1.256
			c-0.076,0.148-0.145,0.258-0.119,0.221c0.025-0.039,9.732,12.177,9.732,12.177c1.129-0.619,1.949-1.203,2.703-1.768
			c0.744-0.564,1.398-1.113,2.018-1.658c1.236-1.088,2.328-2.155,3.377-3.224c2.092-2.139,3.996-4.277,5.854-6.43
			c3.68-4.321,7.096-8.716,10.467-13.124c3.34-4.43,6.566-8.914,9.766-13.403c0.367-0.528,0.73-1.058,1.098-1.586
			c0.449,0.282,0.9,0.554,1.35,0.839c3.324,2.11,6.633,4.273,9.902,6.49c3.268,2.219,6.504,4.486,9.656,6.857
			c1.572,1.188,7.668,5.273,7.668,5.273S334.786,260.259,333.674,258.566z"/>
	</g>
	<g>
		<path fill="#FFFFFF" d="M272.254,348.752l1.957,7.537h3.51l-7.094-26.123h-3.77l-7.02,26.123h3.51l1.885-7.537H272.254z
			 M268.002,337.557c0.223-0.912,0.459-2.143,0.703-3.695h0.111l0.74,3.695l2.105,8.24h-5.803L268.002,337.557z"/>
		<path fill="#FFFFFF" d="M285.45,353.48c-1.75,0-3.312-0.736-4.693-2.217l-1.662,3.031c1.846,1.625,4.002,2.439,6.467,2.439
			c2.242,0,4.002-0.691,5.283-2.068c1.281-1.381,1.92-3.131,1.92-5.248c0-1.061-0.178-2.008-0.533-2.848
			c-0.357-0.836-0.814-1.537-1.367-2.105c-0.555-0.566-1.178-1.082-1.867-1.551c-0.688-0.469-1.373-0.906-2.051-1.312
			s-1.293-0.818-1.846-1.238c-0.557-0.418-1.012-0.928-1.367-1.533c-0.359-0.602-0.537-1.262-0.537-1.977
			c0-1.084,0.346-1.994,1.033-2.734c0.691-0.738,1.652-1.109,2.883-1.109c0.691,0,1.436,0.148,2.236,0.445
			c0.801,0.293,1.445,0.652,1.939,1.07l1.256-3.141c-1.6-1.107-3.424-1.662-5.469-1.662c-2.266,0-4.062,0.678-5.395,2.031
			c-1.33,1.355-1.994,3.055-1.994,5.1c0,1.182,0.232,2.248,0.701,3.197c0.469,0.947,1.059,1.705,1.773,2.271
			s1.477,1.133,2.291,1.699l2.291,1.535c0.715,0.453,1.305,1.027,1.773,1.719c0.469,0.689,0.701,1.463,0.701,2.326
			c0,1.158-0.346,2.096-1.033,2.809C287.495,353.125,286.583,353.48,285.45,353.48z"/>
		<rect x="296.612" y="330.166" fill="#FFFFFF" width="3.473" height="26.123"/>
		<path fill="#FFFFFF" d="M315.534,348.752l1.959,7.537h3.51l-7.096-26.123h-3.768l-7.021,26.123h3.51l1.885-7.537H315.534z
			 M311.284,337.557c0.223-0.912,0.457-2.143,0.703-3.695h0.109l0.738,3.695l2.107,8.24h-5.801L311.284,337.557z"/>
		<path fill="#FFFFFF" d="M340.368,356.289v-26.123h-3.289v16.555c0,0.984,0.074,2.242,0.225,3.77h-0.113l-0.221-0.631
			c-0.125-0.395-0.295-0.896-0.518-1.514c-0.223-0.615-0.43-1.133-0.629-1.553l-8.238-16.627h-3.623v26.123h3.326v-16.627
			c0-0.961-0.074-2.217-0.221-3.77h0.109l1.367,3.734l8.242,16.662H340.368z"/>
		<path fill="#FFFFFF" d="M271.883,388.537c2.783,0,5.074-0.777,6.873-2.328l-1.367-2.992c-1.701,1.355-3.473,2.031-5.322,2.031
			c-2.289,0-4.131-1.004-5.523-3.012c-1.391-2.008-2.088-4.477-2.088-7.408c0-2.908,0.691-5.297,2.07-7.17
			c1.379-1.871,3.264-2.807,5.652-2.807c0.838,0,1.701,0.178,2.588,0.535c0.887,0.359,1.602,0.795,2.143,1.312l1.479-3.031
			c-1.652-1.428-3.744-2.143-6.281-2.143c-3.475,0-6.221,1.25-8.242,3.75c-2.018,2.5-3.029,5.734-3.029,9.699
			c0,3.918,0.998,7.158,2.994,9.721C265.823,387.256,268.508,388.537,271.883,388.537z"/>
		<path fill="#FFFFFF" d="M290.106,388.537c2.439,0,4.391-0.777,5.855-2.328c1.467-1.553,2.199-3.684,2.199-6.395v-17.846h-3.473
			v17.736c0,1.848-0.406,3.24-1.219,4.176c-0.814,0.936-1.947,1.404-3.4,1.404c-1.428,0-2.549-0.469-3.363-1.404
			c-0.812-0.936-1.219-2.314-1.219-4.139v-17.773h-3.473v17.846c0,2.711,0.732,4.842,2.197,6.395
			C285.678,387.76,287.641,388.537,290.106,388.537z"/>
		<rect x="303.19" y="361.969" fill="#FFFFFF" width="3.475" height="26.125"/>
		<path fill="#FFFFFF" d="M316.645,385.285c-1.75,0-3.314-0.74-4.693-2.217l-1.664,3.031c1.848,1.623,4.002,2.438,6.467,2.438
			c2.242,0,4.004-0.689,5.283-2.068c1.281-1.381,1.922-3.129,1.922-5.25c0-1.057-0.18-2.006-0.537-2.844
			c-0.355-0.838-0.811-1.539-1.367-2.105c-0.555-0.566-1.176-1.084-1.863-1.553c-0.691-0.469-1.375-0.906-2.053-1.312
			c-0.678-0.404-1.293-0.818-1.848-1.238c-0.555-0.416-1.01-0.928-1.367-1.531s-0.535-1.264-0.535-1.979
			c0-1.082,0.346-1.994,1.035-2.732c0.691-0.738,1.65-1.109,2.881-1.109c0.691,0,1.436,0.148,2.236,0.443s1.447,0.652,1.939,1.072
			l1.258-3.143c-1.604-1.107-3.426-1.662-5.469-1.662c-2.268,0-4.066,0.678-5.395,2.033c-1.332,1.354-1.998,3.055-1.998,5.098
			c0,1.184,0.236,2.25,0.703,3.197c0.469,0.949,1.059,1.707,1.775,2.271c0.713,0.566,1.477,1.135,2.289,1.701l2.291,1.533
			c0.715,0.455,1.307,1.027,1.773,1.719c0.469,0.689,0.703,1.465,0.703,2.328c0,1.156-0.346,2.094-1.035,2.807
			C318.688,384.928,317.776,385.285,316.645,385.285z"/>
		<rect x="327.805" y="361.969" fill="#FFFFFF" width="3.475" height="26.125"/>
		<path fill="#FFFFFF" d="M341.075,371.428l8.24,16.666h3.584v-26.125h-3.289v16.555c0,0.984,0.074,2.24,0.223,3.768h-0.111
			l-0.223-0.627c-0.123-0.395-0.295-0.9-0.516-1.516c-0.225-0.613-0.43-1.133-0.629-1.551l-8.24-16.629h-3.621v26.125h3.326v-16.627
			c0-0.961-0.076-2.219-0.223-3.77h0.109L341.075,371.428z"/>
		<polygon fill="#FFFFFF" points="370.122,365.109 370.122,361.969 358.114,361.969 358.114,388.094 370.567,388.094 
			370.567,384.951 361.586,384.951 361.586,376.49 368.497,376.49 368.497,373.35 361.586,373.35 361.586,365.109 		"/>
	</g>
</g>
</svg>
